<svg version="1.1" id="Layer_1" xmlns="http://www.w3.org/2000/svg" xmlns:xlink="http://www.w3.org/1999/xlink" x="0px" y="0px"
	 width="100%" viewBox="0 0 670 200" enable-background="new 0 0 670 200" xml:space="preserve">
<path fill="#FEFEFE" opacity="1.000000" stroke="none" 
	d="
M472.000000,201.000000 
	C314.711700,201.000000 157.923416,201.000000 1.067558,201.000000 
	C1.067558,134.397583 1.067558,67.795067 1.067558,1.096276 
	C224.333313,1.096276 447.666656,1.096276 670.971313,1.096276 
	C670.971313,67.743271 670.971313,134.371643 670.971313,201.000000 
	C604.795044,201.000000 538.647522,201.000000 472.000000,201.000000 
M586.263733,95.597099 
	C583.988098,87.988708 579.512390,82.226028 571.818848,79.700424 
	C563.663391,77.023170 556.215454,78.564674 549.358765,85.748222 
	C549.358765,76.218178 549.358765,67.819771 549.358765,59.495682 
	C544.913513,59.495682 541.002930,59.495682 537.194580,59.495682 
	C537.194580,82.170158 537.194580,104.516487 537.194580,126.787292 
	C540.991028,126.787292 544.422058,126.787292 547.921448,126.787292 
	C548.451538,124.944626 548.928589,123.286461 549.430542,121.541618 
	C561.400879,130.832794 574.575378,129.761063 582.338684,119.178543 
	C587.442139,112.221855 587.882629,104.473724 586.263733,95.597099 
M121.128815,114.293373 
	C115.747322,99.472145 110.358551,84.653557 104.987091,69.828690 
	C101.809875,61.059792 101.816856,61.244129 92.358566,60.977905 
	C88.633064,60.873039 86.974937,61.887661 85.677811,65.581078 
	C79.078148,84.372757 72.077774,103.023605 65.240440,121.732071 
	C64.652924,123.339653 64.231522,125.007927 63.694752,126.773666 
	C76.368103,127.519775 76.368065,127.519760 80.357674,116.310165 
	C80.580383,115.684410 80.624229,114.843422 81.063583,114.476105 
	C82.173103,113.548515 83.437714,112.187363 84.681145,112.142799 
	C91.167290,111.910332 97.675446,111.851486 104.153336,112.179184 
	C105.549103,112.249794 107.439362,113.889450 108.083717,115.278610 
	C109.808884,118.997925 110.981575,122.973503 112.305016,126.656006 
	C116.798180,126.656006 120.988693,126.656006 125.631004,126.656006 
	C124.114151,122.473900 122.763283,118.749428 121.128815,114.293373 
M485.387543,85.997566 
	C484.060760,88.772781 482.734009,91.547997 481.047546,95.075546 
	C484.949524,95.075546 487.783844,95.314835 490.548920,94.980820 
	C492.072052,94.796829 493.909393,94.007919 494.857727,92.869301 
	C497.783234,89.356567 502.535431,87.688553 506.914246,89.358376 
	C511.170319,90.981400 512.258057,94.462334 511.927887,99.079971 
	C508.921722,99.079971 505.935181,98.867622 502.990997,99.130348 
	C498.704193,99.512886 494.315063,99.766701 490.209320,100.925125 
	C483.837372,102.722939 480.392090,107.695511 480.358368,113.802376 
	C480.323639,120.094971 484.048004,125.140953 490.515350,127.008095 
	C499.102448,129.487213 506.775970,128.089462 512.791931,120.422646 
	C513.403198,122.905190 513.874756,124.820183 514.345886,126.733322 
	C517.862122,126.733322 521.281921,126.733322 524.856873,126.733322 
	C524.856873,116.326561 525.054504,106.187614 524.786377,96.060997 
	C524.612061,89.478317 521.594727,84.238045 515.538940,81.129654 
	C508.070953,77.296371 493.084167,77.001366 485.387543,85.997566 
M273.178009,127.769531 
	C280.836456,128.758682 287.741425,127.523544 292.949341,120.240471 
	C293.623810,122.903915 294.099243,124.781288 294.585480,126.701347 
	C298.134949,126.701347 301.532562,126.701347 304.871124,126.701347 
	C304.990997,126.081444 305.104675,125.766113 305.105286,125.450562 
	C305.121887,116.956711 305.163727,108.462669 305.125549,99.969002 
	C305.061096,85.621178 297.962006,78.546402 283.639374,78.481689 
	C271.688202,78.427696 263.296326,84.917122 262.503082,95.075066 
	C264.008514,95.075066 265.495605,95.038528 266.980377,95.082253 
	C270.708374,95.192001 273.955872,95.459579 276.679443,91.397377 
	C279.057190,87.850937 283.827332,88.158279 287.717041,89.672714 
	C291.742157,91.239868 292.487640,94.785606 292.095795,98.705544 
	C286.012115,99.086220 279.997314,99.067970 274.110291,99.926224 
	C265.898376,101.123421 261.341461,105.799843 260.848907,112.498253 
	C260.281250,120.217949 263.753510,124.767212 273.178009,127.769531 
M386.011230,125.665924 
	C403.542175,132.450195 418.419220,123.594666 420.611847,105.070015 
	C422.659973,87.766006 405.387695,73.970009 388.974670,79.776939 
	C379.569824,83.104378 374.326233,89.889778 373.184937,99.598137 
	C371.897247,110.551483 375.321655,119.557648 386.011230,125.665924 
M358.338318,86.226913 
	C350.709778,76.809723 334.837250,76.930511 327.219757,81.763756 
	C317.488678,87.938019 313.087067,100.376549 316.825256,111.461472 
	C320.716370,122.999756 330.607361,129.169830 343.255310,127.948647 
	C353.428589,126.966377 361.340729,119.742592 362.568237,110.125252 
	C359.218201,110.125252 355.874146,109.913399 352.580627,110.228981 
	C351.253021,110.356194 349.625916,111.343376 348.835541,112.442719 
	C343.822327,119.415726 333.689575,118.762009 330.120758,110.962227 
	C327.796173,105.881622 327.866486,100.511375 330.234772,95.471451 
	C333.779968,87.927002 343.776764,87.251778 348.711975,93.966942 
	C349.458466,94.982628 350.788696,96.105492 351.927765,96.197006 
	C355.502930,96.484230 359.115723,96.302681 363.710693,96.302681 
	C361.778961,92.553619 360.292175,89.668114 358.338318,86.226913 
M167.538071,124.111221 
	C172.629837,120.323608 174.291763,115.216316 173.046417,109.151367 
	C171.865250,103.398979 167.246597,101.410492 162.324051,99.975220 
	C158.658752,98.906525 154.895828,98.167526 151.244537,97.057549 
	C148.640594,96.265961 145.062210,95.750046 145.773666,91.926521 
	C146.480499,88.127747 150.073486,88.264374 153.050034,88.322319 
	C154.480560,88.350166 156.531509,88.662529 157.214798,89.620865 
	C161.195312,95.203697 166.648468,92.317108 171.669922,92.992950 
	C170.062805,85.289406 166.388351,80.503120 159.634003,79.512398 
	C154.361664,78.739044 148.663651,79.007111 143.451584,80.157318 
	C137.022476,81.576103 133.096329,87.313301 133.094971,93.266296 
	C133.093506,99.602020 137.094040,102.817139 142.511780,104.689499 
	C145.328705,105.663025 148.253174,106.323746 151.124344,107.142342 
	C153.360138,107.779785 155.788101,108.093452 157.751801,109.214592 
	C159.111755,109.991020 160.766083,112.024864 160.596512,113.265541 
	C160.376816,114.872986 158.771729,116.878304 157.238068,117.606194 
	C153.038162,119.599556 148.297653,117.884613 145.289078,114.151581 
	C144.502930,113.176117 143.125702,112.209915 141.945435,112.108742 
	C138.696640,111.830261 135.408371,112.012550 131.933655,112.012550 
	C132.443741,117.720139 134.981995,121.681664 139.400620,124.224785 
	C148.462357,129.440247 157.696854,129.596481 167.538071,124.111221 
M187.753815,78.248199 
	C185.035583,78.960815 182.317337,79.673431 179.593872,80.387421 
	C179.593872,83.463524 179.593872,86.576584 179.593872,89.880623 
	C182.260147,90.043991 184.693680,90.193100 187.944153,90.392265 
	C187.944153,98.349297 187.753586,106.135086 188.006561,113.906441 
	C188.196991,119.756409 191.114105,124.383049 196.911499,125.761284 
	C201.922134,126.952499 207.236176,126.867439 212.441589,127.348907 
	C212.441589,123.024010 212.441589,119.765373 212.441589,116.056007 
	C210.021500,116.056007 207.889297,116.023071 205.758469,116.063438 
	C202.241241,116.130066 200.414764,114.230034 200.343857,110.922318 
	C200.198578,104.146255 200.300262,97.364891 200.300262,90.069580 
	C204.632431,90.069580 208.539658,90.069580 212.609222,90.069580 
	C212.609222,86.433762 212.609222,83.317970 212.609222,79.493881 
	C208.506516,79.493881 204.470993,79.493881 200.063934,79.493881 
	C200.063934,74.867615 200.063934,70.934486 200.063934,66.842499 
	C196.210419,66.842499 192.764877,66.842499 188.995819,66.842499 
	C188.615112,70.422714 188.247864,73.876213 187.753815,78.248199 
M231.162582,79.628708 
	C228.726776,79.628708 226.290985,79.628708 223.809509,79.628708 
	C223.809509,95.747360 223.809509,111.264626 223.809509,126.724350 
	C228.048950,126.724350 231.966827,126.724350 236.133850,126.724350 
	C236.133850,120.821907 236.257339,115.194763 236.108109,109.574860 
	C235.798950,97.931770 237.686066,91.276344 252.353104,91.842941 
	C252.637329,91.853912 252.931686,91.602577 253.370331,91.407272 
	C253.370331,87.264854 253.370331,83.070999 253.370331,78.799736 
	C245.887161,78.239731 240.750107,82.017960 236.908966,86.487885 
	C233.334778,85.040268 237.789719,79.425690 231.162582,79.628708 
M456.516785,95.499771 
	C456.516785,105.903885 456.516785,116.307999 456.516785,126.724503 
	C461.044647,126.724503 464.956635,126.724503 468.737854,126.724503 
	C468.737854,104.094604 468.737854,81.742630 468.737854,59.427429 
	C464.573334,59.427429 460.804688,59.427429 456.516693,59.427429 
	C456.516693,71.280174 456.516693,82.889961 456.516785,95.499771 
M431.516785,68.528275 
	C431.516785,87.921219 431.516785,107.314163 431.516785,126.725296 
	C436.043182,126.725296 439.956177,126.725296 443.737427,126.725296 
	C443.737427,104.095390 443.737427,81.742638 443.737427,59.427994 
	C439.573212,59.427994 435.804016,59.427994 431.516693,59.427994 
	C431.516693,62.294239 431.516693,64.915482 431.516785,68.528275 
z"/>
<path fill="#142329" opacity="1.000000" stroke="none" 
	d="
M586.441650,95.981216 
	C587.882629,104.473724 587.442139,112.221855 582.338684,119.178543 
	C574.575378,129.761063 561.400879,130.832794 549.430542,121.541618 
	C548.928589,123.286461 548.451538,124.944626 547.921448,126.787292 
	C544.422058,126.787292 540.991028,126.787292 537.194580,126.787292 
	C537.194580,104.516487 537.194580,82.170158 537.194580,59.495682 
	C541.002930,59.495682 544.913513,59.495682 549.358765,59.495682 
	C549.358765,67.819771 549.358765,76.218178 549.358765,85.748222 
	C556.215454,78.564674 563.663391,77.023170 571.818848,79.700424 
	C579.512390,82.226028 583.988098,87.988708 586.441650,95.981216 
M559.023132,89.922935 
	C552.551086,92.107864 549.397949,96.142685 549.104675,102.614914 
	C548.828735,108.703606 551.799866,113.889374 556.773560,116.000320 
	C561.505005,118.008446 567.114929,116.967033 570.620483,113.429787 
	C574.396179,109.619957 575.505737,102.530479 573.169861,97.140266 
	C570.827393,91.734810 566.974487,89.617828 559.023132,89.922935 
z"/>
<path fill="#14242A" opacity="1.000000" stroke="none" 
	d="
M121.270615,114.659164 
	C122.763283,118.749428 124.114151,122.473900 125.631004,126.656006 
	C120.988693,126.656006 116.798180,126.656006 112.305016,126.656006 
	C110.981575,122.973503 109.808884,118.997925 108.083717,115.278610 
	C107.439362,113.889450 105.549103,112.249794 104.153336,112.179184 
	C97.675446,111.851486 91.167290,111.910332 84.681145,112.142799 
	C83.437714,112.187363 82.173103,113.548515 81.063583,114.476105 
	C80.624229,114.843422 80.580383,115.684410 80.357674,116.310165 
	C76.368065,127.519760 76.368103,127.519775 63.694752,126.773666 
	C64.231522,125.007927 64.652924,123.339653 65.240440,121.732071 
	C72.077774,103.023605 79.078148,84.372757 85.677811,65.581078 
	C86.974937,61.887661 88.633064,60.873039 92.358566,60.977905 
	C101.816856,61.244129 101.809875,61.059792 104.987091,69.828690 
	C110.358551,84.653557 115.747322,99.472145 121.270615,114.659164 
M91.881210,83.361374 
	C89.767952,89.430161 87.654701,95.498947 85.423126,101.907532 
	C91.686790,101.907532 97.306450,101.907532 103.592400,101.907532 
	C100.593254,93.229012 97.703751,84.867760 94.581055,75.831718 
	C93.556198,78.585205 92.806931,80.598267 91.881210,83.361374 
z"/>
<path fill="#14242A" opacity="1.000000" stroke="none" 
	d="
M485.649902,85.737259 
	C493.084167,77.001366 508.070953,77.296371 515.538940,81.129654 
	C521.594727,84.238045 524.612061,89.478317 524.786377,96.060997 
	C525.054504,106.187614 524.856873,116.326561 524.856873,126.733322 
	C521.281921,126.733322 517.862122,126.733322 514.345886,126.733322 
	C513.874756,124.820183 513.403198,122.905190 512.791931,120.422646 
	C506.775970,128.089462 499.102448,129.487213 490.515350,127.008095 
	C484.048004,125.140953 480.323639,120.094971 480.358368,113.802376 
	C480.392090,107.695511 483.837372,102.722939 490.209320,100.925125 
	C494.315063,99.766701 498.704193,99.512886 502.990997,99.130348 
	C505.935181,98.867622 508.921722,99.079971 511.927887,99.079971 
	C512.258057,94.462334 511.170319,90.981400 506.914246,89.358376 
	C502.535431,87.688553 497.783234,89.356567 494.857727,92.869301 
	C493.909393,94.007919 492.072052,94.796829 490.548920,94.980820 
	C487.783844,95.314835 484.949524,95.075546 481.047546,95.075546 
	C482.734009,91.547997 484.060760,88.772781 485.649902,85.737259 
M501.860657,106.973999 
	C501.195740,107.002007 500.519287,106.960876 499.867828,107.069618 
	C496.468353,107.637085 493.646027,108.940155 493.942963,113.041237 
	C494.239441,117.135712 497.286682,118.016060 500.665680,118.136284 
	C506.513641,118.344360 510.484131,114.203423 511.177460,106.962524 
	C508.360199,106.962524 505.569244,106.962524 501.860657,106.973999 
z"/>
<path fill="#14242A" opacity="1.000000" stroke="none" 
	d="
M272.767700,127.672958 
	C263.753510,124.767212 260.281250,120.217949 260.848907,112.498253 
	C261.341461,105.799843 265.898376,101.123421 274.110291,99.926224 
	C279.997314,99.067970 286.012115,99.086220 292.095795,98.705544 
	C292.487640,94.785606 291.742157,91.239868 287.717041,89.672714 
	C283.827332,88.158279 279.057190,87.850937 276.679443,91.397377 
	C273.955872,95.459579 270.708374,95.192001 266.980377,95.082253 
	C265.495605,95.038528 264.008514,95.075066 262.503082,95.075066 
	C263.296326,84.917122 271.688202,78.427696 283.639374,78.481689 
	C297.962006,78.546402 305.061096,85.621178 305.125549,99.969002 
	C305.163727,108.462669 305.121887,116.956711 305.105286,125.450562 
	C305.104675,125.766113 304.990997,126.081444 304.871124,126.701347 
	C301.532562,126.701347 298.134949,126.701347 294.585480,126.701347 
	C294.099243,124.781288 293.623810,122.903915 292.949341,120.240471 
	C287.741425,127.523544 280.836456,128.758682 272.767700,127.672958 
M286.651733,116.459450 
	C288.644196,113.616463 290.636658,110.773483 293.308838,106.960663 
	C288.628632,106.960663 285.550446,106.496246 282.693054,107.091614 
	C279.850098,107.683975 277.011536,109.035278 274.644867,110.719597 
	C273.947205,111.216118 274.347443,115.146553 275.125061,115.485962 
	C277.962372,116.724342 281.160889,117.167068 284.251831,117.761230 
	C284.767426,117.860352 285.424927,117.221008 286.651733,116.459450 
z"/>
<path fill="#15242A" opacity="1.000000" stroke="none" 
	d="
M385.683929,125.476334 
	C375.321655,119.557648 371.897247,110.551483 373.184937,99.598137 
	C374.326233,89.889778 379.569824,83.104378 388.974670,79.776939 
	C405.387695,73.970009 422.659973,87.766006 420.611847,105.070015 
	C418.419220,123.594666 403.542175,132.450195 385.683929,125.476334 
M388.728729,93.297272 
	C387.932648,94.916298 386.879517,96.460976 386.385986,98.167503 
	C384.476593,104.769943 386.520416,112.476166 390.988434,115.361526 
	C394.820007,117.835884 398.829895,117.787621 402.623566,115.209541 
	C407.065125,112.191200 408.878723,105.269669 407.163727,98.485420 
	C404.886536,89.477127 396.857452,86.881836 388.728729,93.297272 
z"/>
<path fill="#16252B" opacity="1.000000" stroke="none" 
	d="
M358.571838,86.504761 
	C360.292175,89.668114 361.778961,92.553619 363.710693,96.302681 
	C359.115723,96.302681 355.502930,96.484230 351.927765,96.197006 
	C350.788696,96.105492 349.458466,94.982628 348.711975,93.966942 
	C343.776764,87.251778 333.779968,87.927002 330.234772,95.471451 
	C327.866486,100.511375 327.796173,105.881622 330.120758,110.962227 
	C333.689575,118.762009 343.822327,119.415726 348.835541,112.442719 
	C349.625916,111.343376 351.253021,110.356194 352.580627,110.228981 
	C355.874146,109.913399 359.218201,110.125252 362.568237,110.125252 
	C361.340729,119.742592 353.428589,126.966377 343.255310,127.948647 
	C330.607361,129.169830 320.716370,122.999756 316.825256,111.461472 
	C313.087067,100.376549 317.488678,87.938019 327.219757,81.763756 
	C334.837250,76.930511 350.709778,76.809723 358.571838,86.504761 
z"/>
<path fill="#16252B" opacity="1.000000" stroke="none" 
	d="
M167.234711,124.321434 
	C157.696854,129.596481 148.462357,129.440247 139.400620,124.224785 
	C134.981995,121.681664 132.443741,117.720139 131.933655,112.012550 
	C135.408371,112.012550 138.696640,111.830261 141.945435,112.108742 
	C143.125702,112.209915 144.502930,113.176117 145.289078,114.151581 
	C148.297653,117.884613 153.038162,119.599556 157.238068,117.606194 
	C158.771729,116.878304 160.376816,114.872986 160.596512,113.265541 
	C160.766083,112.024864 159.111755,109.991020 157.751801,109.214592 
	C155.788101,108.093452 153.360138,107.779785 151.124344,107.142342 
	C148.253174,106.323746 145.328705,105.663025 142.511780,104.689499 
	C137.094040,102.817139 133.093506,99.602020 133.094971,93.266296 
	C133.096329,87.313301 137.022476,81.576103 143.451584,80.157318 
	C148.663651,79.007111 154.361664,78.739044 159.634003,79.512398 
	C166.388351,80.503120 170.062805,85.289406 171.669922,92.992950 
	C166.648468,92.317108 161.195312,95.203697 157.214798,89.620865 
	C156.531509,88.662529 154.480560,88.350166 153.050034,88.322319 
	C150.073486,88.264374 146.480499,88.127747 145.773666,91.926521 
	C145.062210,95.750046 148.640594,96.265961 151.244537,97.057549 
	C154.895828,98.167526 158.658752,98.906525 162.324051,99.975220 
	C167.246597,101.410492 171.865250,103.398979 173.046417,109.151367 
	C174.291763,115.216316 172.629837,120.323608 167.234711,124.321434 
z"/>
<path fill="#14242A" opacity="1.000000" stroke="none" 
	d="
M187.817230,77.788956 
	C188.247864,73.876213 188.615112,70.422714 188.995819,66.842499 
	C192.764877,66.842499 196.210419,66.842499 200.063934,66.842499 
	C200.063934,70.934486 200.063934,74.867615 200.063934,79.493881 
	C204.470993,79.493881 208.506516,79.493881 212.609222,79.493881 
	C212.609222,83.317970 212.609222,86.433762 212.609222,90.069580 
	C208.539658,90.069580 204.632431,90.069580 200.300262,90.069580 
	C200.300262,97.364891 200.198578,104.146255 200.343857,110.922318 
	C200.414764,114.230034 202.241241,116.130066 205.758469,116.063438 
	C207.889297,116.023071 210.021500,116.056007 212.441589,116.056007 
	C212.441589,119.765373 212.441589,123.024010 212.441589,127.348907 
	C207.236176,126.867439 201.922134,126.952499 196.911499,125.761284 
	C191.114105,124.383049 188.196991,119.756409 188.006561,113.906441 
	C187.753586,106.135086 187.944153,98.349297 187.944153,90.392265 
	C184.693680,90.193100 182.260147,90.043991 179.593872,89.880623 
	C179.593872,86.576584 179.593872,83.463524 179.593872,80.387421 
	C182.317337,79.673431 185.035583,78.960815 187.817230,77.788956 
z"/>
<path fill="#132329" opacity="1.000000" stroke="none" 
	d="
M231.587463,79.629219 
	C237.789719,79.425690 233.334778,85.040268 236.908966,86.487885 
	C240.750107,82.017960 245.887161,78.239731 253.370331,78.799736 
	C253.370331,83.070999 253.370331,87.264854 253.370331,91.407272 
	C252.931686,91.602577 252.637329,91.853912 252.353104,91.842941 
	C237.686066,91.276344 235.798950,97.931770 236.108109,109.574860 
	C236.257339,115.194763 236.133850,120.821907 236.133850,126.724350 
	C231.966827,126.724350 228.048950,126.724350 223.809509,126.724350 
	C223.809509,111.264626 223.809509,95.747360 223.809509,79.628708 
	C226.290985,79.628708 228.726776,79.628708 231.587463,79.629219 
z"/>
<path fill="#112127" opacity="1.000000" stroke="none" 
	d="
M456.516724,94.999763 
	C456.516693,82.889961 456.516693,71.280174 456.516693,59.427429 
	C460.804688,59.427429 464.573334,59.427429 468.737854,59.427429 
	C468.737854,81.742630 468.737854,104.094604 468.737854,126.724503 
	C464.956635,126.724503 461.044647,126.724503 456.516785,126.724503 
	C456.516785,116.307999 456.516785,105.903885 456.516724,94.999763 
z"/>
<path fill="#112127" opacity="1.000000" stroke="none" 
	d="
M431.516724,68.032501 
	C431.516693,64.915482 431.516693,62.294239 431.516693,59.427994 
	C435.804016,59.427994 439.573212,59.427994 443.737427,59.427994 
	C443.737427,81.742638 443.737427,104.095390 443.737427,126.725296 
	C439.956177,126.725296 436.043182,126.725296 431.516785,126.725296 
	C431.516785,107.314163 431.516785,87.921219 431.516724,68.032501 
z"/>
<path fill="#FBFBFB" opacity="1.000000" stroke="none" 
	d="
M559.447327,89.878242 
	C566.974487,89.617828 570.827393,91.734810 573.169861,97.140266 
	C575.505737,102.530479 574.396179,109.619957 570.620483,113.429787 
	C567.114929,116.967033 561.505005,118.008446 556.773560,116.000320 
	C551.799866,113.889374 548.828735,108.703606 549.104675,102.614914 
	C549.397949,96.142685 552.551086,92.107864 559.447327,89.878242 
z"/>
<path fill="#F8F8F9" opacity="1.000000" stroke="none" 
	d="
M91.969437,82.986351 
	C92.806931,80.598267 93.556198,78.585205 94.581055,75.831718 
	C97.703751,84.867760 100.593254,93.229012 103.592400,101.907532 
	C97.306450,101.907532 91.686790,101.907532 85.423126,101.907532 
	C87.654701,95.498947 89.767952,89.430161 91.969437,82.986351 
z"/>
<path fill="#F9FAFA" opacity="1.000000" stroke="none" 
	d="
M502.319458,106.968262 
	C505.569244,106.962524 508.360199,106.962524 511.177460,106.962524 
	C510.484131,114.203423 506.513641,118.344360 500.665680,118.136284 
	C497.286682,118.016060 494.239441,117.135712 493.942963,113.041237 
	C493.646027,108.940155 496.468353,107.637085 499.867828,107.069618 
	C500.519287,106.960876 501.195740,107.002007 502.319458,106.968262 
z"/>
<path fill="#F8F8F8" opacity="1.000000" stroke="none" 
	d="
M286.334290,116.691177 
	C285.424927,117.221008 284.767426,117.860352 284.251831,117.761230 
	C281.160889,117.167068 277.962372,116.724342 275.125061,115.485962 
	C274.347443,115.146553 273.947205,111.216118 274.644867,110.719597 
	C277.011536,109.035278 279.850098,107.683975 282.693054,107.091614 
	C285.550446,106.496246 288.628632,106.960663 293.308838,106.960663 
	C290.636658,110.773483 288.644196,113.616463 286.334290,116.691177 
z"/>
<path fill="#FBFBFB" opacity="1.000000" stroke="none" 
	d="
M388.974365,92.991302 
	C396.857452,86.881836 404.886536,89.477127 407.163727,98.485420 
	C408.878723,105.269669 407.065125,112.191200 402.623566,115.209541 
	C398.829895,117.787621 394.820007,117.835884 390.988434,115.361526 
	C386.520416,112.476166 384.476593,104.769943 386.385986,98.167503 
	C386.879517,96.460976 387.932648,94.916298 388.974365,92.991302 
z"/>
</svg>